{
  "accessors": [
    {
      "bufferView": 2,
      "componentType": 5126,
      "count": 30720,
      "max": [
        87.51850891113281,
        88.39835357666016,
        4.782832622528076
      ],
      "min": [
        -8.33071231842041,
        -8.871124267578125,
        -0.3185326159000397
      ],
      "type": "VEC3"
    },
    {
      "bufferView": 0,
      "componentType": 5125,
      "count": 61440,
      "type": "SCALAR"
    },
    {
      "bufferView": 2,
      "byteOffset": 368640,
      "componentType": 5126,
      "count": 27,
      "max": [
        79.28057098388672,
        81.24901580810547,
        3.726945048698278e-21
      ],
      "min": [
        0.0,
        0.0,
        0.0
      ],
      "type": "VEC3"
    },
    {
      "bufferView": 0,
      "byteOffset": 245760,
      "componentType": 5125,
      "count": 32,
      "type": "SCALAR"
    },
    {
      "bufferView": 2,
      "byteOffset": 368964,
      "componentType": 5126,
      "count": 32,
      "max": [
        83.59956359863281,
        87.41322326660156,
        -3.5448561776652964e-15
      ],
      "min": [
        -6.164208889007568,
        -2.3505470752716064,
        -3.544859989313559e-15
      ],
      "type": "VEC3"
    },
    {
      "bufferView": 0,
      "byteOffset": 245888,
      "componentType": 5125,
      "count": 64,
      "type": "SCALAR"
    },
    {
      "bufferView": 2,
      "byteOffset": 369348,
      "componentType": 5126,
      "count": 64,
      "max": [
        83.59956359863281,
        87.41322326660156,
        -3.5448561776652964e-15
      ],
      "min": [
        -6.164208889007568,
        -2.3505470752716064,
        -3.544859989313559e-15
      ],
      "type": "VEC3"
    },
    {
      "bufferView": 2,
      "byteOffset": 370116,
      "componentType": 5126,
      "count": 64,
      "max": [
        0.0,
        0.0,
        1.0
      ],
      "min": [
        0.0,
        0.0,
        -1.0
      ],
      "type": "VEC3"
    },
    {
      "bufferView": 1,
      "componentType": 5126,
      "count": 64,
      "max": [
        -0.12342909723520279,
        1.359673023223877
      ],
      "min": [
        -1.1234289407730103,
        0.026339609175920486
      ],
      "type": "VEC2"
    },
    {
      "bufferView": 0,
      "byteOffset": 246144,
      "componentType": 5125,
      "count": 96,
      "type": "SCALAR"
    },
    {
      "bufferView": 2,
      "byteOffset": 370884,
      "componentType": 5126,
      "count": 61440,
      "max": [
        87.51850891113281,
        88.39835357666016,
        4.782832622528076
      ],
      "min": [
        -8.33071231842041,
        -8.871124267578125,
        -0.3185326159000397
      ],
      "type": "VEC3"
    },
    {
      "bufferView": 2,
      "byteOffset": 1108164,
      "componentType": 5126,
      "count": 61440,
      "max": [
        0.9999983310699463,
        0.9999983310699463,
        0.826539933681488
      ],
      "min": [
        -0.9999983310699463,
        -0.9999983310699463,
        -0.826539933681488
      ],
      "type": "VEC3"
    },
    {
      "bufferView": 1,
      "byteOffset": 512,
      "componentType": 5126,
      "count": 61440,
      "max": [
        9.285497665405273,
        0.8899096250534058
      ],
      "min": [
        8.376152992248535,
        4.314928137016949e-10
      ],
      "type": "VEC2"
    },
    {
      "bufferView": 1,
      "byteOffset": 492032,
      "componentType": 5126,
      "count": 61440,
      "max": [
        9.285497665405273,
        0.8899096250534058
      ],
      "min": [
        8.376152992248535,
        4.314928137016949e-10
      ],
      "type": "VEC2"
    },
    {
      "bufferView": 0,
      "byteOffset": 246528,
      "componentType": 5125,
      "count": 92160,
      "type": "SCALAR"
    }
  ],
  "asset": {
    "extras": {
      "author": "Pasha (https://sketchfab.com/Pasha.)",
      "license": "SKETCHFAB Standard (https://sketchfab.com/licenses)",
      "source": "https://sketchfab.com/3d-models/realistic-grass-ba0971efc9ac4176b8f7d2379cd7250b",
      "title": "Realistic grass"
    },
    "generator": "Sketchfab-16.74.0",
    "version": "2.0"
  },
  "bufferViews": [
    {
      "buffer": 0,
      "byteLength": 615168,
      "name": "floatBufferViews",
      "target": 34963
    },
    {
      "buffer": 0,
      "byteLength": 983552,
      "byteOffset": 615168,
      "byteStride": 8,
      "name": "floatBufferViews",
      "target": 34962
    },
    {
      "buffer": 0,
      "byteLength": 1845444,
      "byteOffset": 1598720,
      "byteStride": 12,
      "name": "floatBufferViews",
      "target": 34962
    }
  ],
  "buffers": [
    {
      "byteLength": 3444164,
      "uri": "scene.bin"
    }
  ],
  "images": [
    {
      "uri": "textures/grasss_baseColor.jpeg"
    },
    {
      "uri": "textures/grass_close2_baseColor.png"
    }
  ],
  "materials": [
    {
      "alphaMode": "BLEND",
      "name": "edge_color000255",
      "pbrMetallicRoughness": {
        "baseColorFactor": [
          1.0,
          1.0,
          1.0,
          0.0
        ],
        "metallicFactor": 0.0,
        "roughnessFactor": 0.6
      }
    },
    {
      "name": "edge_color10012851255",
      "pbrMetallicRoughness": {
        "metallicFactor": 0.0,
        "roughnessFactor": 0.6
      }
    },
    {
      "name": "grasss",
      "pbrMetallicRoughness": {
        "baseColorTexture": {
          "index": 0
        },
        "metallicFactor": 0.0,
        "roughnessFactor": 0.6
      }
    },
    {
      "alphaMode": "BLEND",
      "name": "grass_close2",
      "pbrMetallicRoughness": {
        "baseColorTexture": {
          "index": 1
        },
        "metallicFactor": 0.0,
        "roughnessFactor": 0.6
      }
    }
  ],
  "meshes": [
    {
      "name": "Material3",
      "primitives": [
        {
          "attributes": {
            "POSITION": 0
          },
          "indices": 1,
          "material": 0,
          "mode": 1
        }
      ]
    },
    {
      "name": "Material2",
      "primitives": [
        {
          "attributes": {
            "POSITION": 2
          },
          "indices": 3,
          "material": 0,
          "mode": 1
        }
      ]
    },
    {
      "name": "Material3",
      "primitives": [
        {
          "attributes": {
            "POSITION": 4
          },
          "indices": 5,
          "material": 1,
          "mode": 1
        }
      ]
    },
    {
      "name": "Material2",
      "primitives": [
        {
          "attributes": {
            "NORMAL": 7,
            "POSITION": 6,
            "TEXCOORD_0": 8
          },
          "indices": 9,
          "material": 2,
          "mode": 4
        }
      ]
    },
    {
      "name": "Material2",
      "primitives": [
        {
          "attributes": {
            "NORMAL": 11,
            "POSITION": 10,
            "TEXCOORD_0": 12,
            "TEXCOORD_1": 13
          },
          "indices": 14,
          "material": 3,
          "mode": 4
        }
      ]
    }
  ],
  "nodes": [
    {
      "children": [
        1
      ],
      "matrix": [
        1.0,
        0.0,
        0.0,
        0.0,
        0.0,
        2.220446049250313e-16,
        -1.0,
        0.0,
        0.0,
        1.0,
        2.220446049250313e-16,
        0.0,
        0.0,
        0.0,
        0.0,
        1.0
      ],
      "name": "Sketchfab_model"
    },
    {
      "children": [
        2,
        3,
        4,
        5,
        6,
        7
      ],
      "name": "Collada visual scene group"
    },
    {
      "mesh": 0,
      "name": "Material3"
    },
    {
      "mesh": 1,
      "name": "Material2"
    },
    {
      "mesh": 2,
      "name": "Material3"
    },
    {
      "mesh": 3,
      "name": "Material2"
    },
    {
      "mesh": 4,
      "name": "Material2"
    },
    {
      "children": [
        8,
        10
      ],
      "name": "SketchUp"
    },
    {
      "children": [
        9
      ],
      "matrix": [
        -0.9852766,
        0.1709677,
        0.0,
        0.0,
        -0.1146132,
        -0.6605088,
        0.7420189,
        0.0,
        0.1268613,
        0.7310938,
        0.670379,
        0.0,
        26.82179,
        103.1454,
        43.0979,
        1.0
      ],
      "name": "skp_camera_Last_Saved_SketchUp_View"
    },
    {
      "name": "ID1"
    },
    {
      "children": [
        11
      ],
      "matrix": [
        1.0,
        0.0,
        0.0,
        0.0,
        0.0,
        1.0,
        0.0,
        0.0,
        0.0,
        0.0,
        1.0,
        0.0,
        13.64714,
        22.99223,
        162.1383,
        1.0
      ],
      "name": "skp_camera_Page_1"
    },
    {
      "name": "ID2"
    }
  ],
  "samplers": [
    {
      "magFilter": 9729,
      "minFilter": 9987,
      "wrapS": 10497,
      "wrapT": 10497
    }
  ],
  "scene": 0,
  "scenes": [
    {
      "name": "Sketchfab_Scene",
      "nodes": [
        0
      ]
    }
  ],
  "textures": [
    {
      "sampler": 0,
      "source": 0
    },
    {
      "sampler": 0,
      "source": 1
    }
  ]
}
